# xmcd
#
# Track frame offsets:
# 151
# 20800
# 38655
# 45782
# 53123
#
# Disc length: 834 seconds
#
# Revision: 0
# Processed by: cddbd v1.5PL3 Copyright (c) Steve Scherf et al.
# Submitted via: MacMP3 Pro 5.0 (http://mp3.act2.co.jp/)
#
DISCID=33034005
DTITLE=taka - taka
DYEAR=1900
DGENRE=
TTITLE0=fourleafclover
TTITLE1=pops
TTITLE2=ryo1
TTITLE3=ryo2
TTITLE4=ryo3
EXTD=
EXTT0=
EXTT1=
EXTT2=
EXTT3=
EXTT4=
PLAYORDER=
